<svg
  width="24"
  height="22"
  viewBox="0 0 33 30"
  fill="none"
  xmlns="http://www.w3.org/2000/svg"
>
  <path
    d="M33 21.1294C33 25.5946 29.4074 29.2477 25.0161 29.2477H16.52L14.9832 26.7106L13.4343 24.1734H25.0161C25.8161 24.1646 26.5801 23.8394 27.1412 23.2691C27.7022 22.6987 28.0147 21.9295 28.0104 21.1294C28.0104 19.5052 26.7129 18.0854 25.0161 18.0854H10.2531L7.1674 13.0111H17.6306C18.4315 13.0036 19.1969 12.6791 19.7591 12.1086C20.3213 11.5381 20.6346 10.768 20.6303 9.96706C20.6303 8.24067 19.3274 6.92437 17.6306 6.92437H3.73479L2.3674 4.43563L1 1.94958H17.7301C22.1213 1.94958 25.714 5.60269 25.714 10.0679C25.7084 11.1104 25.5054 12.1424 25.1156 13.1092C29.4074 13.0111 33 16.6642 33 21.1294Z"
    fill="#F7A326"
  />
  <path
    d="M4.79993 21.2154C5.59494 21.2111 6.37332 21.443 7.0364 21.8816C7.69948 22.3202 8.21741 22.9458 8.52455 23.6791C8.83168 24.4124 8.91418 25.2204 8.7616 26.0007C8.60902 26.7809 8.22822 27.4983 7.66747 28.0618C7.10672 28.6254 6.39128 29.0098 5.61181 29.1663C4.83235 29.3229 4.02397 29.2444 3.28913 28.941C2.55429 28.6376 1.92608 28.1228 1.48414 27.4619C1.04219 26.8011 0.8064 26.0239 0.806655 25.2288C0.805241 24.7031 0.907418 24.1822 1.10735 23.6959C1.30728 23.2097 1.60105 22.7676 1.97188 22.3949C2.34271 22.0222 2.78333 21.7262 3.26857 21.5238C3.75382 21.3214 4.27418 21.2166 4.79993 21.2154Z"
    fill="#F7A326"
  />
</svg>
