<svg width="143" height="32" viewBox="0 0 143 32" fill="none" xmlns="http://www.w3.org/2000/svg">
<path d="M33 21.1294C33 25.5946 29.4074 29.2477 25.0161 29.2477H16.52L14.9832 26.7106L13.4343 24.1734H25.0161C25.8161 24.1646 26.5801 23.8394 27.1412 23.2691C27.7022 22.6987 28.0147 21.9295 28.0104 21.1294C28.0104 19.5052 26.7129 18.0854 25.0161 18.0854H10.2531L7.1674 13.0111H17.6306C18.4315 13.0036 19.1969 12.6791 19.7591 12.1086C20.3213 11.5381 20.6346 10.768 20.6303 9.96706C20.6303 8.24067 19.3274 6.92437 17.6306 6.92437H3.73479L2.3674 4.43563L1 1.94958H17.7301C22.1213 1.94958 25.714 5.60269 25.714 10.0679C25.7084 11.1104 25.5054 12.1424 25.1156 13.1092C29.4074 13.0111 33 16.6642 33 21.1294Z" fill="#F7A326"/>
<path d="M4.79993 21.2154C5.59494 21.2111 6.37332 21.443 7.0364 21.8816C7.69948 22.3202 8.21741 22.9458 8.52455 23.6791C8.83168 24.4124 8.91418 25.2204 8.7616 26.0007C8.60902 26.7809 8.22822 27.4983 7.66747 28.0618C7.10672 28.6254 6.39128 29.0098 5.61181 29.1663C4.83235 29.3229 4.02397 29.2444 3.28913 28.941C2.55429 28.6376 1.92608 28.1228 1.48414 27.4619C1.04219 26.8011 0.8064 26.0239 0.806655 25.2288C0.805241 24.7031 0.907418 24.1822 1.10735 23.6959C1.30728 23.2097 1.60105 22.7676 1.97188 22.3949C2.34271 22.0222 2.78333 21.7262 3.26857 21.5238C3.75382 21.3214 4.27418 21.2166 4.79993 21.2154Z" fill="#F7A326"/>
<path d="M52.0528 10.4314C49.6612 10.4314 47.6856 11.2688 46.3144 12.7159V4.31484H43V26.8379H46.3144V25.0032C47.6856 26.4517 49.6612 27.2877 52.0528 27.2877C56.1965 27.2877 59.893 23.9097 59.893 18.8596C59.893 13.8419 56.1965 10.4314 52.0528 10.4314ZM51.5108 24.3297C48.897 24.3297 46.3144 22.2376 46.3144 18.8609C46.3144 15.5154 48.897 13.3921 51.5108 13.3921C54.4106 13.3921 56.6748 15.5154 56.6748 18.8609C56.6748 22.2376 54.4106 24.3257 51.5108 24.3257V24.3297ZM70.2547 10.5289C65.5691 10.5289 61.7439 13.9056 61.7439 18.8609C61.7439 23.8162 65.5691 27.2241 70.2547 27.2241C74.9079 27.2241 78.7005 23.8148 78.7005 18.8609C78.7005 13.907 74.9079 10.5289 70.2547 10.5289ZM70.2547 24.3297C67.481 24.3297 64.9946 22.1739 64.9946 18.8609C64.9946 15.5479 67.481 13.3921 70.2547 13.3921C72.9648 13.3921 75.4824 15.5465 75.4824 18.8609C75.4824 22.1753 72.9634 24.3257 70.2547 24.3257V24.3297ZM90.7615 10.4314C88.3699 10.4314 86.3943 11.2688 85.023 12.7159V4.31484H81.7087V26.8379H85.023V25.0032C86.3943 26.4517 88.3699 27.2877 90.7615 27.2877C94.9051 27.2877 98.6016 23.9097 98.6016 18.8596C98.6016 13.8419 94.9051 10.4314 90.7615 10.4314ZM90.2195 24.3297C87.6057 24.3297 85.023 22.2376 85.023 18.8609C85.023 15.5154 87.6057 13.3921 90.2195 13.3921C93.1192 13.3921 95.3835 15.5154 95.3835 18.8609C95.3835 22.2376 93.1192 24.3257 90.2195 24.3257V24.3297ZM109.472 24.1766C109.043 24.2401 108.606 24.2105 108.19 24.0899C107.774 23.9692 107.39 23.7603 107.062 23.4773C106.734 23.1944 106.471 22.8441 106.291 22.4504C106.111 22.0566 106.017 21.6286 106.018 21.1956V13.7566H110.164V10.8826H106.018V6.54655H102.703V10.8826H99.7751V13.7566H102.706V21.5886C102.706 22.4926 102.921 23.3837 103.333 24.1885C103.745 24.9933 104.342 25.6889 105.075 26.218C105.808 26.7471 106.657 27.0947 107.55 27.2321C108.444 27.3696 109.357 27.293 110.215 27.0086V24.0669L109.472 24.1766ZM128.469 10.8826H125.153V12.7159C123.782 11.2688 121.806 10.4314 119.423 10.4314C115.279 10.4314 111.581 13.8419 111.581 18.8609C111.581 23.911 115.279 27.2891 119.423 27.2891C121.813 27.2891 123.789 26.4531 125.16 25.0045V26.8379H128.476L128.469 10.8826ZM119.965 24.3257C117.064 24.3257 114.801 22.2335 114.801 18.8568C114.801 15.5113 117.064 13.388 119.965 13.388C122.579 13.388 125.16 15.5113 125.16 18.8568C125.153 22.2376 122.572 24.3257 119.965 24.3257ZM134.122 4.00048C133.844 3.99452 133.567 4.04421 133.308 4.14661C133.049 4.24901 132.813 4.40208 132.615 4.59682C132.416 4.79156 132.258 5.02407 132.15 5.28069C132.042 5.53732 131.986 5.81289 131.986 6.09126C131.986 7.28232 132.878 8.15088 134.122 8.15088C135.333 8.15088 136.225 7.28232 136.225 6.09126C136.226 5.81536 136.172 5.542 136.067 5.28704C135.961 5.03209 135.806 4.80062 135.611 4.6061C135.415 4.41157 135.183 4.25787 134.927 4.1539C134.672 4.04993 134.398 3.99778 134.122 4.00048ZM135.779 26.8379V10.8826H132.463V26.8379H135.779ZM143 26.8379V4.31213H139.686V26.8379H143Z" fill="#07433F"/>
</svg>
